<svg xmlns="http://www.w3.org/2000/svg" id="color" enable-background="new 0 0 24 24" height="512" viewBox="0 0 24 24" width="512"><path d="m12 1c-6.065 0-11 4.935-11 11s4.935 11 11 11 11-4.935 11-11-4.935-11-11-11z" fill="#ffc107"/><g fill="#fafafa"><path d="m12.38 15.5h-2.13c-.414 0-.75-.336-.75-.75s.336-.75.75-.75h2.13c.342 0 .62-.278.62-.62 0-.352-.278-.63-.62-.63h-.76c-1.169 0-2.12-.951-2.12-2.12 0-1.179.951-2.13 2.12-2.13h2.13c.414 0 .75.336.75.75s-.336.75-.75.75h-2.13c-.342 0-.62.278-.62.62 0 .352.278.63.62.63h.76c1.169 0 2.12.951 2.12 2.12 0 1.179-.951 2.13-2.12 2.13z"/><path d="m12 10c-.414 0-.75-.336-.75-.75v-1.5c0-.414.336-.75.75-.75s.75.336.75.75v1.5c0 .414-.336.75-.75.75z"/><path d="m12 17c-.414 0-.75-.336-.75-.75v-1.5c0-.414.336-.75.75-.75s.75.336.75.75v1.5c0 .414-.336.75-.75.75z"/></g><path d="m12 10h-.38c-.342 0-.62.278-.62.62 0 .352.278.63.62.63h.38zm0-9c-6.065 0-11 4.935-11 11s4.935 11 11 11v-6c-.414 0-.75-.336-.75-.75v-.75h-1c-.414 0-.75-.336-.75-.75s.336-.75.75-.75h1.75v-1.25h-.38c-1.169 0-2.12-.951-2.12-2.12 0-1.051.757-1.922 1.75-2.098v-.782c0-.414.336-.75.75-.75z" fill="#dea806"/><path d="m12 14h-1.75c-.414 0-.75.336-.75.75s.336.75.75.75h1v-.75c0-.414.336-.75.75-.75zm-.75-5.468c-.993.176-1.75 1.046-1.75 2.098 0 1.169.951 2.12 2.12 2.12h.38v-1.5h-.38c-.342 0-.62-.278-.62-.63 0-.342.278-.62.62-.62h.38c-.414 0-.75-.336-.75-.75z" fill="#dadada"/><path d="m12 7c-.414 0-.75.336-.75.75v.782.718c0 .414.336.75.75.75z" fill="#dadada"/><path d="m12 14c-.414 0-.75.336-.75.75v.75.75c0 .414.336.75.75.75z" fill="#dadada"/></svg>